<svg
  xmlns="http://www.w3.org/2000/svg"
  width="24"
  height="24"
  viewBox="0 0 24 24"
  fill="none"
  stroke="currentColor"
  stroke-width="2"
  stroke-linecap="round"
  stroke-linejoin="round"
  class="icon icon-tabler icons-tabler-outline icon-tabler-beton"
>
  <path stroke="none" d="M0 0h24v24H0z" fill="none" />
  <path d="M6 17a2 2 0 1 0 4 0a2 2 0 1 0 -4 0" />
  <path d="M15 17a2 2 0 1 0 4 0a2 2 0 1 0 -4 0" />
  <path d="M8 19h9" />
  <path d="M21 15v-4a1 1 0 0 0 -1 -1h-3v5h-13" />
  <path d="M4 15v-6m8 6v-2" />
  <path d="M12 13l1 -3l-7 -5l-2 4z" />
  <path d="M8 11l2 -3" />
</svg>
