<svg
  xmlns="http://www.w3.org/2000/svg"
  width="24"
  height="24"
  viewBox="0 0 24 24"
  fill="none"
  stroke="currentColor"
  stroke-width="2"
  stroke-linecap="round"
  stroke-linejoin="round"
  class="icon icon-tabler icons-tabler-outline icon-tabler-strassenbau"
>
  <path stroke="none" d="M0 0h24v24H0z" fill="none" />
  <path d="M15 16a3 3 0 1 0 6 0a3 3 0 1 0 -6 0" />
  <path d="M5 17a2 2 0 1 0 4 0a2 2 0 1 0 -4 0" />
  <path d="M7 19h11" />
  <path d="M15 15v-4h-10v4h10" />
  <path d="M12 11v-3a1 1 0 0 0 -1 -1h-3v4" />
</svg>
